<?xml version="1.0" encoding="utf-8"?>
<!-- Generator: Adobe Illustrator 26.5.0, SVG Export Plug-In . SVG Version: 6.00 Build 0)  -->
<svg version="1.1" id="Band_News" xmlns="http://www.w3.org/2000/svg" xmlns:xlink="http://www.w3.org/1999/xlink" x="0px" y="0px"
	 viewBox="0 0 396.82 197.56" style="enable-background:new 0 0 396.82 197.56;" xml:space="preserve">
<style type="text/css">
	.st0{fill:#22337A;}
	.st1{fill:#C85827;}
</style>
<g id="xbuhY2_00000049209155136016905070000008975134119346304648_">
	<g>
		<path class="st0" d="M50.76,87.3c-8.06-0.04-16.12-0.15-24.17-0.06c-1.97,0.02-2.41-0.51-2.4-2.43c0.07-23.04,0.07-46.08,0-69.11
			c-0.01-1.94,0.47-2.48,2.43-2.46c8.06,0.08,16.11-0.03,24.17-0.08c0.95,0.06,1.89,0.17,2.84,0.18
			c11.97,0.01,23.94-0.01,35.91,0.02c2.16,0.01,4.32,0.13,6.46,0.37c8.32,0.96,14.18,5.55,15.56,12.34
			c1.65,8.16,0.39,15.35-7.47,20.16c9.1,3.53,12.32,10.59,11.97,19.86c0.44-0.45,0.62-0.74,0.75-1.06
			c6.99-16.45,14-32.9,20.93-49.38c0.75-1.79,1.7-2.38,3.65-2.36c10.32,0.11,20.64,0.1,30.96,0.01c1.75-0.02,2.57,0.51,3.25,2.13
			c8.18,19.42,16.44,38.81,24.72,58.19c0.25,0.58,0.17,1.62,1.32,1.64c0-19.72,0.04-39.39-0.05-59.06
			c-0.01-2.19,0.38-2.96,2.79-2.91c9.36,0.16,18.73,0.1,28.1,0.03c1.71-0.01,2.81,0.43,3.85,1.9c6.56,9.25,13.24,18.41,19.89,27.6
			c2.59,3.59,5.19,7.17,8.22,11.34c0-1.2,0-1.61,0-2.01c0-12.13,0.04-24.27-0.05-36.4c-0.02-1.97,0.55-2.47,2.48-2.45
			c7.72,0.11,15.44,0.09,23.16,0.01c1.73-0.02,2.39,0.34,2.39,2.26c-0.07,23.14-0.06,46.28-0.01,69.42c0,1.65-0.39,2.21-2.14,2.2
			c-9.37-0.09-18.73-0.06-28.1-0.02c-1.24,0.01-2.04-0.34-2.8-1.38c-4.05-5.51-8.2-10.95-12.3-16.42
			c-5.69-7.57-11.37-15.15-17.43-23.22c0,1.38,0,2.13,0,2.88c0,11.79-0.08,23.57,0.06,35.36c0.03,2.38-0.69,2.83-2.91,2.81
			c-15.18-0.1-30.35-0.05-45.53-0.05c-6.37,0-6.37,0-8.59-5.79c-0.09-0.24-0.21-0.48-0.25-0.74c-0.27-1.57-1.2-1.96-2.75-1.94
			c-6.76,0.09-13.53,0.01-20.29,0.05c-2.5,0.02-5.5-0.95-7.35,0.39c-1.59,1.15-2.05,4.05-2.7,6.26c-0.49,1.66-1.48,1.79-2.89,1.79
			c-8.93-0.04-17.87-0.01-26.8-0.03c-0.64,0-1.36,0.24-2.04-0.37c0.81-2.02,1.63-4.06,2.69-6.72c-5.13,4.49-10.69,6.05-16.66,6.65
			c-3.54,0.36-7.08,0.43-10.62,0.45C72.25,87.19,61.5,87.25,50.76,87.3z M66.32,68.91c0-0.06,0-0.12,0-0.17
			c4.33,0,8.67,0.24,12.98-0.07c3.8-0.27,5.36-2.15,5.37-5.37c0.01-3.26-1.56-5.01-5.33-5.39c-8.38-0.83-16.79-0.16-25.18-0.37
			c-1.25-0.03-1.38,0.67-1.37,1.65c0.03,2.6,0.12,5.2-0.03,7.79c-0.1,1.73,0.63,1.99,2.12,1.95C58.69,68.85,62.51,68.91,66.32,68.91
			z M65.57,31.85c0-0.04,0-0.08,0-0.12c-1.99,0-3.98,0-5.98,0c-6.99,0-6.93,0-6.84,7.08c0.02,1.62,0.49,2.05,2.07,2.02
			c5.19-0.09,10.39-0.03,15.59-0.04c2.42,0,4.86,0.17,7.24-0.38c2.06-0.47,3.73-1.37,3.86-3.85c0.15-2.88-1.12-4.51-4.26-4.67
			C73.37,31.69,69.47,31.85,65.57,31.85z M156.7,36.11c-2.78,8.04-5.34,15.5-7.95,22.94c-0.48,1.37,0.23,1.42,1.24,1.42
			c4.49-0.02,8.99-0.05,13.48,0.02c1.37,0.02,1.66-0.4,1.2-1.65c-0.89-2.42-1.7-4.88-2.55-7.32
			C160.39,46.57,158.64,41.63,156.7,36.11z"/>
		<path class="st0" d="M194.91,154.58c-0.05,3.28-0.17,6.56-0.11,9.84c0.03,1.54-0.38,2.11-2.02,2.11
			c-24.06-0.05-48.12-0.05-72.19,0c-1.65,0-2.04-0.56-2.02-2.1c0.06-3.28-0.07-6.56-0.12-9.84c0.06-1.03,0.17-2.07,0.17-3.1
			c0.01-17.84,0.06-35.69-0.05-53.53c-0.01-2.43,0.49-3.18,3.08-3.18c30.86,0.1,61.72,0.1,92.58,0c2.31-0.01,3.09,0.74,3.52,2.87
			c2.24,11.18,4.57,22.33,6.98,33.47c0.43,1.98,0.51,4.1,1.64,6.34c1.71-7.05,3.32-13.67,4.92-20.3c1.62-6.71,3.27-13.42,4.78-20.16
			c0.36-1.62,0.93-2.25,2.7-2.22c6.15,0.12,12.31,0.11,18.46,0c1.73-0.03,2.41,0.54,2.76,2.19c0.97,4.56,2.12,9.08,3.21,13.61
			c2.11,8.82,4.22,17.63,6.36,26.55c0.72-0.58,0.71-1.21,0.83-1.8c2.72-12.84,5.5-25.67,8.12-38.53c0.34-1.69,0.95-2.03,2.5-2.02
			c6.93,0.07,13.87,0.03,20.8,0.03c4.74,0,4.73,0,3.48,4.45c-0.1,0.35-0.38,0.8,0.18,1.16c5.8-5.14,12.9-7.17,20.34-8.18
			c13.29-1.81,26.55-1.28,39.77,0.8c5.19,1.32,10.34,2.73,14.81,5.85c5.73,4.01,8.9,9.45,9.11,16.51
			c-10.91,0.05-21.81,0.09-32.72,0.16c-0.95,0.01-1.39-0.29-1.47-1.3c-0.15-1.78-1.21-3.11-2.74-3.85c-6.24-3-12.69-2.93-19.15-0.83
			c-1.76,0.57-2.84,2.12-2.62,4.05c0.23,1.99,1.67,2.86,3.58,3.14c9.22,1.35,18.42,2.78,27.64,4.11
			c9.76,1.41,19.63,2.48,26.97,10.24c6.4,8.83,3.99,21.38-0.83,26.9c-3.41,3.9-7.7,6.37-12.5,8.02c-6.75,2.31-13.75,3.44-20.85,3.58
			c-9.59,0.2-19.19,0.29-28.76-0.51c-0.59-0.85-1.57-0.62-2.36-0.75c-6.49-1.09-12.56-3.21-17.96-7.04c-2.08-2-3.94-4.17-5.26-6.77
			c-0.92-2.34-1.46-4.78-1.82-7.26c-0.22-1.51-0.01-2.39,1.94-2.38c10.48,0.09,20.97,0.05,31.45,0.02c1.06,0,1.75,0.12,1.99,1.4
			c0.49,2.6,2.37,4,4.79,4.54c4.78,1.08,9.6,1.25,14.4,0.1c3.27-0.79,4.87-2.68,4.69-5.28c-0.16-2.37-2.06-4.09-5.2-4.56
			c-10.68-1.6-21.36-3.16-32.03-4.75c-10.35-1.54-18.65-5.61-20.86-17.26c-0.27,0.41-0.47,0.61-0.53,0.84
			c-3.33,11.52-6.66,23.04-9.98,34.56c-0.71,2.43-1.41,4.86-2.12,7.29c-0.2,0.48-0.53,0.94-0.58,1.43c-0.28,2.7-1.71,3.37-4.36,3.27
			c-6.14-0.23-12.3-0.04-18.45-0.09c-1.97-0.02-4.21,0.68-5.85-0.35c-1.39-0.87-0.83-3.23-1.71-4.72c-0.53-2.26-1.06-4.52-1.59-6.78
			c-2.13-8.85-4.27-17.7-6.4-26.55c-0.7,0.88-0.88,1.63-1.06,2.38c-1.93,8.05-3.86,16.09-5.8,24.14c-0.69,2.35-1.41,4.7-1.69,7.14
			c-0.22,0.55-0.6,1.09-0.63,1.64c-0.14,2.62-1.48,3.26-4,3.19c-5.4-0.17-10.81,0.03-16.21,0.08c-2.15-0.04-4.31-0.22-6.45-0.08
			c-1.69,0.11-2.43-0.46-2.85-2.08c-0.87-3.32-1.94-6.59-2.93-9.89c-3.83-13.27-7.69-26.54-11.43-39.84
			c-0.5-1.79-1.28-2.22-3.04-2.21c-12.83,0.08-25.67,0.04-38.5,0.04c-6.6,0-6.49,0-6.62,6.57c-0.04,2.24,0.7,2.7,2.79,2.68
			c13.09-0.09,26.19-0.02,39.28-0.08c1.68-0.01,2.24,0.4,2.19,2.14c-0.12,4.42-0.14,8.84,0.01,13.25c0.07,1.93-0.43,2.47-2.41,2.46
			c-11.62-0.1-23.24-0.07-34.86-0.03c-2.22,0.01-5.11-0.98-6.5,0.44c-1.38,1.41-0.21,4.29-0.46,6.51c-0.22,1.96,0.48,2.48,2.43,2.46
			c13.44-0.09,26.88-0.05,40.32-0.05c4.56,0,4.55,0,4.84,4.65C194.69,153.92,194.83,154.25,194.91,154.58z"/>
		<path class="st1" d="M365.57,93.08c-13.22-2.08-26.48-2.61-39.77-0.8c-7.44,1.01-14.54,3.05-20.34,8.18
			c-0.56-0.37-0.27-0.82-0.18-1.16c1.25-4.45,1.26-4.45-3.48-4.45c-6.93,0-13.87,0.04-20.8-0.03c-1.55-0.02-2.16,0.33-2.5,2.02
			c-2.62,12.86-5.4,25.69-8.12,38.53c-0.12,0.59-0.12,1.21-0.83,1.8c-2.14-8.92-4.25-17.73-6.36-26.55
			c-1.08-4.53-2.23-9.06-3.21-13.61c-0.35-1.66-1.03-2.22-2.76-2.19c-6.15,0.11-12.31,0.12-18.46,0c-1.77-0.03-2.34,0.6-2.7,2.22
			c-1.52,6.74-3.16,13.44-4.78,20.16c-1.59,6.62-3.21,13.24-4.92,20.3c-1.13-2.24-1.21-4.36-1.64-6.34
			c-2.41-11.14-4.74-22.3-6.98-33.47c-0.43-2.13-1.2-2.88-3.52-2.87c-30.86,0.09-61.72,0.1-92.58,0c-2.59-0.01-3.09,0.74-3.08,3.18
			c0.11,17.84,0.06,35.69,0.05,53.53c0,1.03-0.11,2.07-0.17,3.1c-2.03,0-4.07,0-6.1-0.01c-0.06-1.03-0.17-2.06-0.17-3.1
			c-0.01-18.01-0.05-36.02,0.05-54.02c0.01-2.19-0.59-2.71-2.72-2.67c-7.28,0.14-14.56,0.14-21.83,0c-2.12-0.04-2.77,0.46-2.75,2.67
			c0.12,11.43,0.06,22.86,0.03,34.28c0,0.59,0.45,1.37-0.59,1.95c-0.11-0.19-0.22-0.43-0.37-0.64
			c-7.84-10.87-15.72-21.71-23.49-32.63c-2.38-3.35-4.52-6.79-9.49-5.69c-0.07,0.02-0.16-0.05-0.24-0.08
			c-0.01-2.45-0.01-4.91-0.02-7.36c10.75-0.05,21.5-0.11,32.25-0.15c3.55-0.01,7.08-0.09,10.62-0.45c5.97-0.6,11.52-2.16,16.66-6.65
			c-1.06,2.66-1.88,4.7-2.69,6.72c0.68,0.6,1.4,0.36,2.04,0.37c8.93,0.02,17.87-0.01,26.8,0.03c1.41,0.01,2.4-0.12,2.89-1.79
			c0.66-2.21,1.11-5.11,2.7-6.26c1.84-1.34,4.85-0.37,7.35-0.39c6.76-0.05,13.53,0.03,20.29-0.05c1.55-0.02,2.48,0.37,2.75,1.94
			c0.04,0.25,0.16,0.49,0.25,0.74c2.22,5.79,2.22,5.79,8.59,5.79c15.18,0,30.36-0.05,45.53,0.05c2.22,0.01,2.93-0.43,2.91-2.81
			c-0.14-11.78-0.06-23.57-0.06-35.36c0-0.75,0-1.5,0-2.88c6.06,8.08,11.75,15.65,17.43,23.22c4.11,5.47,8.25,10.91,12.3,16.42
			c0.76,1.04,1.55,1.38,2.8,1.38c9.37-0.05,18.73-0.07,28.1,0.02c1.75,0.02,2.14-0.54,2.14-2.2c-0.05-23.14-0.06-46.28,0.01-69.42
			c0.01-1.91-0.65-2.27-2.39-2.26c-7.72,0.08-15.44,0.1-23.16-0.01c-1.93-0.03-2.5,0.47-2.48,2.45c0.09,12.13,0.05,24.26,0.05,36.4
			c0,0.4,0,0.81,0,2.01c-3.03-4.18-5.63-7.76-8.22-11.34c-6.64-9.19-13.32-18.35-19.89-27.6c-1.04-1.47-2.14-1.91-3.85-1.9
			c-9.37,0.07-18.73,0.13-28.1-0.03c-2.41-0.04-2.8,0.72-2.79,2.91c0.09,19.67,0.05,39.34,0.05,59.06
			c-1.15-0.02-1.07-1.05-1.32-1.64c-8.28-19.38-16.54-38.77-24.72-58.19c-0.68-1.62-1.5-2.14-3.25-2.13
			c-10.32,0.09-20.64,0.1-30.96-0.01c-1.95-0.02-2.9,0.58-3.65,2.36c-6.93,16.48-13.94,32.92-20.93,49.38
			c-0.13,0.31-0.31,0.61-0.75,1.06c0.36-9.27-2.87-16.33-11.97-19.86c7.86-4.81,9.12-12,7.47-20.16
			c-1.37-6.79-7.23-11.38-15.56-12.34c-2.14-0.25-4.31-0.37-6.46-0.37c-11.97-0.04-23.94-0.01-35.91-0.02
			c-0.95,0-1.89-0.11-2.84-0.18c0-2.17,0.17-4.35-0.03-6.49c-0.24-2.56,0.54-3.42,3.26-3.4c20.02,0.12,40.04,0.06,60.06,0.06
			c14.82,0,29.64,0.04,44.46-0.04c1.99-0.01,2.93,0.43,2.54,2.53c-0.31,1.68,0.35,2.18,2.09,2.18c35.71-0.05,71.42-0.04,107.13-0.02
			c1.4,0,2.36-0.08,2.15-1.89c-0.12-1.05,0.65-1.52,1.68-1.49c0.17,0,0.35,0,0.52,0c29.9,0,59.8,0.01,89.71-0.02
			c1.3,0,1.95,0.32,1.79,1.74c-0.3,2.55,0.58,5.18-0.56,7.67c-2.67-0.21-5.33-0.61-8-0.61c-18.71-0.05-37.43,0.01-56.14-0.08
			c-2.23-0.01-2.92,0.44-2.91,2.81c0.1,22.77,0.1,45.53-0.01,68.3c-0.01,2.42,0.75,2.81,2.92,2.77c21.55-0.36,43.11,0.61,64.65-0.65
			C365.88,88.71,366.72,90.98,365.57,93.08z"/>
		<path class="st0" d="M366.11,86.54c-21.54,1.26-43.1,0.28-64.65,0.65c-2.17,0.04-2.93-0.35-2.92-2.77
			c0.11-22.77,0.1-45.53,0.01-68.3c-0.01-2.37,0.69-2.82,2.91-2.81c18.71,0.09,37.43,0.03,56.14,0.08c2.67,0.01,5.33,0.4,8,0.61
			c7.05,1.03,13.59,3.12,18.89,8.28c5.68,5.54,7.93,12.58,8.56,20.07c0.51,6.17,0.66,12.44-0.41,18.63
			c-2.41,13.94-11.09,22.67-25.04,25.14C367.08,86.2,366.6,86.39,366.11,86.54z M327.75,50.11c0,5.37-0.01,10.73,0.01,16.1
			c0,0.91-0.29,2.05,1.26,2.01c7.09-0.21,14.22,0.69,21.25-0.54c7.27-1.28,11.44-6.11,12.33-13.42c0.31-2.58,0.33-5.1,0.04-7.7
			c-0.95-8.38-6.09-13.38-14.57-14.16c-6.14-0.57-12.28-0.11-18.42-0.33c-1.48-0.05-1.94,0.46-1.92,1.94
			C327.79,39.37,327.75,44.74,327.75,50.11z"/>
		<path class="st0" d="M50.77,94.66c0.08,0.03,0.17,0.09,0.24,0.08c4.97-1.1,7.11,2.34,9.49,5.69
			c7.77,10.92,15.65,21.76,23.49,32.63c0.15,0.21,0.26,0.45,0.37,0.64c1.03-0.58,0.59-1.35,0.59-1.95
			c0.03-11.43,0.08-22.86-0.03-34.28c-0.02-2.21,0.63-2.71,2.75-2.67c7.28,0.14,14.56,0.14,21.83,0c2.14-0.04,2.74,0.48,2.72,2.67
			c-0.09,18.01-0.06,36.02-0.05,54.02c0,1.03,0.11,2.06,0.17,3.1c-0.03,3.37-0.11,6.74-0.07,10.12c0.02,1.31-0.35,1.83-1.75,1.82
			c-9.35-0.05-18.7-0.05-28.05,0.01c-1.23,0.01-1.86-0.56-2.51-1.44c-2.64-3.53-5.33-7.03-8-10.53
			c-6.74-9.06-13.48-18.12-20.53-27.59c0,9.68,0,18.66,0,27.63c-0.03,3.38-0.11,6.76-0.06,10.13c0.02,1.34-0.4,1.8-1.77,1.8
			c-7.89-0.05-15.78-0.07-23.67,0.01c-1.69,0.02-1.74-0.77-1.74-2.05c0.02-22.53,0.04-45.06-0.03-67.59
			c-0.01-1.98,0.74-2.19,2.41-2.18C34.65,94.76,42.71,94.69,50.77,94.66z"/>
		<path class="st1" d="M17.98,89.64c0,24.95-0.04,49.9,0.06,74.85c0.01,2.52-0.69,3.27-3.2,3.2c-5.67-0.17-5.68-0.05-5.68-5.64
			c0-2.69-0.11-5.38,0.04-8.06c0.09-1.66-0.48-2.19-2.05-1.97c-0.59,0.08-1.22-0.05-1.82,0.03c-1.42,0.17-1.94-0.3-1.93-1.83
			c0.05-24.26,0.06-48.52-0.01-72.77c-0.01-2.37,1.25-2.57,2.96-2.33c2.19,0.31,2.89-0.33,2.87-2.73
			C9.11,53.42,9.21,34.45,9.1,15.47c-0.01-2.62,0.7-3.44,3.36-3.34c5.51,0.2,5.52,0.06,5.52,5.52
			C17.98,41.64,17.98,65.64,17.98,89.64z"/>
		<path class="st1" d="M194.91,154.58c-0.08-0.33-0.22-0.66-0.24-1c-0.29-4.65-0.29-4.65-4.84-4.65c-13.44,0-26.88-0.04-40.32,0.05
			c-1.96,0.01-2.66-0.51-2.43-2.46c0.25-2.21-0.92-5.1,0.46-6.51c1.39-1.42,4.27-0.44,6.5-0.44c11.62-0.05,23.24-0.07,34.86,0.03
			c1.98,0.02,2.48-0.53,2.41-2.46c-0.15-4.41-0.13-8.84-0.01-13.25c0.05-1.74-0.51-2.15-2.19-2.14
			c-13.09,0.07-26.19-0.01-39.28,0.08c-2.09,0.01-2.83-0.44-2.79-2.68c0.13-6.57,0.02-6.57,6.62-6.57c12.83,0,25.67,0.04,38.5-0.04
			c1.76-0.01,2.54,0.42,3.04,2.21c3.74,13.3,7.6,26.56,11.43,39.84C202.73,154.58,198.82,154.58,194.91,154.58z"/>
		<path class="st1" d="M110.86,185.34c27.66,0,55.33-0.01,82.99,0.03c1.07,0,2.65-0.8,2.76,1.53c0.05,1.02,1.47,0.5,2.24,0.5
			c18.21,0.03,36.42,0.01,54.63,0.05c0.92,0,2.49-0.64,2.69,0.6c0.32,1.91,0.53,3.99-0.16,5.86c-0.24,0.66-1.44,0.26-2.19,0.26
			c-15.26,0.02-30.53,0.01-45.79,0.01c-19.51,0-39.02-0.04-58.54,0.05c-2.09,0.01-2.58-0.58-2.52-2.57
			c0.14-4.24,0.03-4.24-4.34-4.24c-38.16,0-76.31,0-114.47,0c-0.69,0-1.39-0.01-2.08-0.01c-0.69,0-0.84-0.41-0.84-1
			c0-0.56,0.06-1.04,0.78-1.05c0.69,0,1.39-0.02,2.08-0.02C55.71,185.34,83.29,185.34,110.86,185.34z"/>
		<path class="st1" d="M388.98,131.15c-7.34-7.76-17.21-8.84-26.97-10.24c-9.22-1.33-18.43-2.75-27.64-4.11
			c-1.92-0.28-3.36-1.15-3.58-3.14c-0.22-1.93,0.86-3.48,2.62-4.05c6.46-2.1,12.91-2.17,19.15,0.83c1.53,0.73,2.59,2.06,2.74,3.85
			c0.08,1.02,0.52,1.31,1.47,1.3c10.91-0.07,21.81-0.11,32.72-0.16c0.02,4.5,0.03,9.01,0.08,13.51
			C389.57,129.75,389.48,130.49,388.98,131.15z"/>
		<path class="st1" d="M256.22,161.39c0.89,1.5,0.32,3.85,1.71,4.72c1.64,1.03,3.88,0.33,5.85,0.35c6.15,0.05,12.31-0.14,18.45,0.09
			c2.65,0.1,4.08-0.58,4.36-3.27c0.05-0.49,0.38-0.96,0.58-1.43c0.82-0.71,1.82-0.4,2.74-0.41c5.27-0.05,10.53-0.07,15.8-0.1
			c5.41,3.83,11.47,5.95,17.96,7.04c0.79,0.13,1.77-0.09,2.36,0.75c-8.32,0.02-16.63,0.07-24.95,0.07
			c-26.52,0.01-53.03-0.02-79.55,0.05c-2.09,0.01-3.1-0.41-2.68-2.63c5.4-0.05,10.81-0.25,16.21-0.08c2.52,0.08,3.86-0.57,4-3.19
			c0.03-0.56,0.41-1.1,0.63-1.64C245.19,161.05,250.71,161.62,256.22,161.39z"/>
		<path class="st1" d="M51.45,154.59c0-8.97,0-17.95,0-27.63c7.04,9.47,13.79,18.53,20.53,27.59
			C65.13,154.57,58.29,154.58,51.45,154.59z"/>
		<path class="st1" d="M66.32,68.91c-3.81,0-7.63-0.06-11.44,0.03c-1.48,0.03-2.22-0.23-2.12-1.95c0.15-2.59,0.06-5.19,0.03-7.79
			c-0.01-0.99,0.12-1.68,1.37-1.65c8.39,0.21,16.8-0.47,25.18,0.37c3.77,0.37,5.34,2.13,5.33,5.39c-0.01,3.22-1.57,5.1-5.37,5.37
			c-4.31,0.31-8.65,0.07-12.98,0.07C66.32,68.79,66.32,68.85,66.32,68.91z"/>
		<path class="st1" d="M65.57,31.85c3.89,0,7.8-0.16,11.68,0.05c3.15,0.17,4.41,1.8,4.26,4.67c-0.13,2.48-1.8,3.38-3.86,3.85
			c-2.39,0.55-4.82,0.37-7.24,0.38c-5.2,0.01-10.39-0.06-15.59,0.04c-1.58,0.03-2.05-0.4-2.07-2.02c-0.09-7.08-0.15-7.08,6.84-7.08
			c1.99,0,3.98,0,5.98,0C65.57,31.77,65.57,31.81,65.57,31.85z"/>
		<path class="st1" d="M156.7,36.11c1.94,5.52,3.68,10.46,5.42,15.41c0.85,2.44,1.66,4.89,2.55,7.32c0.46,1.25,0.17,1.67-1.2,1.65
			c-4.49-0.06-8.99-0.03-13.48-0.02c-1.01,0-1.72-0.05-1.24-1.42C151.36,51.61,153.92,44.16,156.7,36.11z"/>
		<path class="st1" d="M289.3,154.56c3.32-11.52,6.64-23.04,9.98-34.56c0.07-0.23,0.27-0.43,0.53-0.84
			c2.21,11.65,10.5,15.72,20.86,17.26c10.68,1.59,21.36,3.15,32.03,4.75c3.14,0.47,5.04,2.19,5.2,4.56c0.18,2.6-1.42,4.49-4.69,5.28
			c-4.79,1.15-9.62,0.98-14.4-0.1c-2.42-0.55-4.3-1.94-4.79-4.54c-0.24-1.28-0.93-1.4-1.99-1.4c-10.48,0.02-20.97,0.06-31.45-0.02
			c-1.95-0.02-2.16,0.87-1.94,2.38c0.36,2.48,0.9,4.92,1.82,7.26C296.73,154.56,293.02,154.56,289.3,154.56z"/>
		<path class="st1" d="M241.37,154.57c1.93-8.05,3.86-16.09,5.8-24.14c0.18-0.75,0.36-1.51,1.06-2.38c2.13,8.85,4.27,17.7,6.4,26.55
			C250.21,154.59,245.79,154.58,241.37,154.57z"/>
		<path class="st1" d="M327.75,50.11c0-5.37,0.05-10.74-0.03-16.1c-0.02-1.47,0.44-1.99,1.92-1.94c6.14,0.21,12.28-0.24,18.42,0.33
			c8.48,0.78,13.62,5.78,14.57,14.16c0.29,2.59,0.28,5.12-0.04,7.7c-0.89,7.31-5.06,12.14-12.33,13.42
			c-7.03,1.24-14.17,0.34-21.25,0.54c-1.54,0.04-1.26-1.1-1.26-2.01C327.74,60.84,327.75,55.48,327.75,50.11z"/>
	</g>
</g>
</svg>
