<?xml version="1.0" encoding="utf-8"?>
<!-- Generator: Adobe Illustrator 26.5.0, SVG Export Plug-In . SVG Version: 6.00 Build 0)  -->
<svg version="1.1" id="Camada_1" xmlns="http://www.w3.org/2000/svg" xmlns:xlink="http://www.w3.org/1999/xlink" x="0px" y="0px"
	 viewBox="0 0 595.28 363.76" style="enable-background:new 0 0 595.28 363.76;" xml:space="preserve">
<style type="text/css">
	.st0{fill:#060505;}
</style>
<path class="st0" d="M299.42,345.33c-9.17-0.09-18.32-0.47-27.45-1.18c-38.22-2.95-74.94-11.85-109.92-27.68
	c-23.25-10.53-44.9-23.71-65.04-39.37c-28.54-22.19-52.85-48.36-73.39-78.07c-1.37-1.98-2.56-4.11-3.54-6.3
	c-2.63-5.88-2.63-11.85-0.22-17.83c1.04-2.59,2.44-4.98,4-7.28c13.48-19.81,28.97-37.92,46.2-54.55
	c21.13-20.4,44.4-37.93,70.04-52.29c26.54-14.87,54.63-25.71,84.32-32.38c10.69-2.4,21.47-4.26,32.35-5.56
	c9.25-1.11,18.52-1.94,27.83-2.14c7.61-0.16,15.23-0.28,22.84-0.14c8.43,0.16,16.85,0.79,25.24,1.66
	c22.83,2.37,45.17,7.04,66.99,14.17c36.14,11.81,69.1,29.59,99.18,52.78c24.01,18.51,45.34,39.69,63.63,63.9
	c4.13,5.46,8.06,11.05,11.61,16.91c1.44,2.38,2.68,4.86,3.54,7.51c1.32,4.07,1.22,8.09-0.28,12.09c-1.09,2.91-2.64,5.57-4.37,8.13
	c-9.97,14.8-21.18,28.6-33.37,41.61c-19.97,21.32-42.16,39.98-66.79,55.71c-28.51,18.21-59.1,31.7-91.89,40.11
	c-11.11,2.85-22.34,5.08-33.7,6.69c-9.27,1.32-18.57,2.32-27.93,2.76C312.68,344.89,306.05,345.08,299.42,345.33z M296.69,326.32
	c8.09-0.15,14.82-0.43,21.53-1.14c9.73-1.03,19.34-2.71,28.77-5.32c44.48-12.3,79.72-37.51,105.48-75.82
	c7.47-11.1,13.29-23.04,17.26-35.86c3.42-11.05,4.67-22.31,3.47-33.82c-0.87-8.38-2.99-16.47-5.96-24.34
	c-5.3-14.02-12.91-26.73-22.13-38.49c-13.3-16.97-29.17-31.11-47.35-42.67c-27.8-17.68-58.2-27.3-91.09-28.93
	c-9.51-0.47-19.02-0.24-28.51,0.77c-9.01,0.96-17.93,2.45-26.68,4.81c-44.43,11.97-79.78,36.9-106,74.69
	c-7.54,10.87-13.48,22.58-17.6,35.19c-2.63,8.05-4.34,16.28-4.71,24.76c-0.33,7.61,0.72,15.08,2.6,22.44
	c2.99,11.69,7.83,22.61,13.88,33c10.35,17.78,23.43,33.29,39.14,46.54C213.22,311.17,253.03,325.77,296.69,326.32z"/>
<path class="st0" d="M298.88,309.02c-69.16,0.06-126.02-56.05-125.94-126.1c0.08-70.49,57.54-125.97,126.16-125.91
	c68.38,0.06,125.88,55.49,125.86,126.05C424.94,253.14,368.01,309.17,298.88,309.02z"/>
</svg>
